<!--?xml version="1.0" encoding="UTF-8" standalone="no"?-->
<!-- Created with Inkscape (http://www.inkscape.org/) -->

<svg width="342.70819mm" height="304.7637mm" viewBox="0 0 342.70819 304.7637" version="1.1" id="svg1" inkscape:version="1.3.2 (091e20e, 2023-11-25, custom)" sodipodi:docname="logo_gradient.svg" xmlns:inkscape="http://www.inkscape.org/namespaces/inkscape" xmlns:sodipodi="http://sodipodi.sourceforge.net/DTD/sodipodi-0.dtd" xmlns:xlink="http://www.w3.org/1999/xlink" xmlns="http://www.w3.org/2000/svg" xmlns:svg="http://www.w3.org/2000/svg" style="">
  <sodipodi:namedview id="namedview1" pagecolor="#ffffff" bordercolor="#666666" borderopacity="1.0" inkscape:showpageshadow="2" inkscape:pageopacity="0.0" inkscape:pagecheckerboard="0" inkscape:deskcolor="#d1d1d1" inkscape:document-units="mm" inkscape:zoom="0.5357539" inkscape:cx="699.01498" inkscape:cy="993.9265" inkscape:window-width="3840" inkscape:window-height="2036" inkscape:window-x="-12" inkscape:window-y="-12" inkscape:window-maximized="1" inkscape:current-layer="layer1"></sodipodi:namedview>
  <defs id="defs1">
    <linearGradient inkscape:collect="always" xlink:href="#linearGradient171" id="linearGradient170" x1="219.10838" y1="85.106682" x2="285.17691" y2="121.04951" gradientUnits="userSpaceOnUse" spreadMethod="pad" gradientTransform="translate(-92.644986,-5.1958637)"></linearGradient>
    <linearGradient id="linearGradient171" inkscape:collect="always">
      <stop style="stop-color:#fec8d8;stop-opacity:1;" offset="0" id="stop171"></stop>
      <stop style="stop-color:#d291bc;stop-opacity:1;" offset="1" id="stop170"></stop>
    </linearGradient>
    <linearGradient inkscape:collect="always" xlink:href="#linearGradient171" id="linearGradient2" gradientUnits="userSpaceOnUse" x1="219.10838" y1="85.106682" x2="285.17691" y2="121.04951" spreadMethod="pad" gradientTransform="translate(-92.64499,-5.1958637)"></linearGradient>
    <linearGradient inkscape:collect="always" xlink:href="#linearGradient167" id="linearGradient168" x1="7.8910666" y1="137.2934" x2="66.813896" y2="129.9279" gradientUnits="userSpaceOnUse" gradientTransform="translate(-92.644986,-5.1958637)"></linearGradient>
    <linearGradient id="linearGradient167" inkscape:collect="always">
      <stop style="stop-color:#d291bc;stop-opacity:1;" offset="0" id="stop167"></stop>
      <stop style="stop-color:#fec8d8;stop-opacity:1;" offset="1" id="stop168"></stop>
    </linearGradient>
    <linearGradient inkscape:collect="always" xlink:href="#linearGradient167" id="linearGradient1" gradientUnits="userSpaceOnUse" x1="7.8910666" y1="137.2934" x2="66.813896" y2="129.9279" gradientTransform="translate(-92.644994,-5.1958637)"></linearGradient>
    <linearGradient inkscape:collect="always" xlink:href="#linearGradient171" id="linearGradient5" x1="-461.19067" y1="81.826935" x2="-123.47936" y2="81.826935" gradientUnits="userSpaceOnUse"></linearGradient>
    <inkscape:path-effect effect="bspline" id="path-effect7" is_visible="true" lpeversion="1.3" weight="33.333333" steps="2" helper_size="0" apply_no_weight="true" apply_with_weight="true" only_selected="false" uniform="false"></inkscape:path-effect>
    <linearGradient inkscape:collect="always" xlink:href="#linearGradient3" id="linearGradient4-7" x1="-461.19067" y1="81.826935" x2="-123.47936" y2="81.826935" gradientUnits="userSpaceOnUse"></linearGradient>
    <linearGradient id="linearGradient3" inkscape:collect="always">
      <stop style="stop-color:#957dad;stop-opacity:1;" offset="0" id="stop3-6"></stop>
      <stop style="stop-color:#d291bc;stop-opacity:1;" offset="0.22937039" id="stop5"></stop>
      <stop style="stop-color:#fec8d8;stop-opacity:1;" offset="0.44047856" id="stop6"></stop>
      <stop style="stop-color:#fec8d8;stop-opacity:1;" offset="0.58731347" id="stop7"></stop>
      <stop style="stop-color:#d291bc;stop-opacity:1;" offset="0.78826684" id="stop8"></stop>
      <stop style="stop-color:#957dad;stop-opacity:1;" offset="1" id="stop4-2"></stop>
    </linearGradient>
    <inkscape:path-effect effect="bspline" id="path-effect7-7" is_visible="true" lpeversion="1.3" weight="33.333333" steps="2" helper_size="0" apply_no_weight="true" apply_with_weight="true" only_selected="false" uniform="false"></inkscape:path-effect>
  </defs>
  <g inkscape:label="Layer 1" inkscape:groupmode="layer" id="layer1" transform="translate(113.50625,38.629166)">
    <path style="fill:#d392bc;fill-opacity:1;stroke:none;stroke-width:0.322757;stroke-opacity:1" d="m 81.68202,71.046332 c -1.20324,0.1021 -2.30754,0.22575 -2.45402,0.27477 -0.34936,0.11695 -0.87017,0.64066 -1.17285,1.17941 -0.38531,0.68586 -0.9873,3.04377 -1.11085,4.35122 -0.27149,2.87281 -0.10544,4.56704 -0.18266,4.60882 -0.1019,0.0543 -3.14921,-0.10209 -4.74859,-0.17409 -5.7483,-0.25882 -9.80421,-1.08479 -15.48264,-2.91959 -5.21267,-1.68431 -9.24973,-3.53348 -13.82676,-6.33333 -1.30688,-0.79946 -2.92094,-1.8659 -2.99382,-1.97811 -0.0745,-0.11451 1.12615,-1.8375 2.36016,-4.20453 0.3872,-0.74271 0.57282,-1.22137 0.94428,-2.43508 0.42334,-1.3837 0.45865,-1.55436 0.41778,-2.03062 -0.0689,-0.8034 -0.30282,-1.10563 -1.82439,-2.35699 -1.63345,-1.34339 -1.90744,-1.53001 -2.52408,-1.71913 -0.61314,-0.18854 -1.10781,-0.11718 -1.91721,0.27494 l -0.60818,0.29462 -0.76975,-0.65567 c -0.67041,-0.57104 -0.84345,-0.67856 -1.34064,-0.83302 -0.47476,-0.14724 -0.64393,-0.15966 -1.00454,-0.0725 -0.39911,0.0965 -1.27806,0.53679 -2.07917,1.04152 l -0.32646,0.20569 -0.49366,-0.40287 c -0.65865,-0.53752 -1.16695,-0.69849 -1.75917,-0.5571 -0.62097,0.14823 -1.42036,0.66759 -2.3831,1.54829 -0.45295,0.41434 -0.83242,0.75066 -0.84326,0.74735 -0.0108,-0.003 -0.16092,-0.11006 -0.33353,-0.23719 -0.40837,-0.30087 -0.76627,-0.29744 -1.28253,0.0122 -0.64263,0.38548 -1.05685,0.91799 -1.28786,1.65562 -0.17529,0.55839 -0.0865,0.90131 0.3124,1.21128 0.24682,0.1918 0.31037,0.28883 0.24881,0.37998 -0.81436,1.20598 -1.52538,2.96377 -1.50643,3.7242 0.0145,0.58208 0.10306,0.72072 0.82373,1.28945 l 0.59307,0.46802 -0.3624,1.22613 c -0.29112,0.98488 -0.35326,1.29895 -0.3157,1.59624 0.0906,0.71828 0.40463,1.14445 1.40142,1.90222 0.35878,0.27276 0.68366,0.53894 0.72194,0.59151 0.0382,0.0526 0.009,0.3682 -0.0653,0.70141 -0.16867,0.75723 -0.12475,1.52735 0.11283,1.9766 0.27649,0.52282 3.3724,3.01256 3.99712,3.2145 1.51158,0.48859 4.31078,-1.2425 7.67585,-4.74696 0.67479,-0.70273 0.86831,-0.71293 0.9073,-0.71533 0.039,-0.002 0.95789,0.6276 1.56471,1.03343 4.09495,2.73858 8.4948,5.00579 13.45454,6.93303 1.68704,0.65554 6.54576,2.13546 8.3324,2.5381 7.07065,1.59297 16.19872,1.67295 16.36623,2.05961 0.0437,0.10036 1.03555,6.21567 3.23458,8.3443 0.62969,0.60954 0.83612,0.65151 2.65191,0.53918 3.49546,-0.21624 3.91489,-0.40536 4.5641,-2.05788 l 0.23964,-0.61003 0.97859,-0.0689 c 1.14001,-0.0803 1.69771,-0.24707 2.05149,-0.61374 0.37533,-0.389 0.73781,-1.15282 0.98431,-2.07415 l 0.21831,-0.8159 0.58376,-0.0374 c 0.8174,-0.0525 1.12266,-0.17732 1.51456,-0.61959 0.31831,-0.3592 0.35615,-0.4457 0.57175,-1.30686 0.14261,-0.56973 0.24884,-1.27145 0.2779,-1.83599 0.0259,-0.50259 0.0595,-0.91924 0.0748,-0.9259 0.0153,-0.007 0.20741,-0.0431 0.42694,-0.0812 0.21953,-0.038 0.48629,-0.1417 0.59281,-0.23051 0.58092,-0.48435 0.54182,-2.45406 -0.0608,-3.06245 -0.20455,-0.20651 -0.70499,-0.35776 -1.14361,-0.34591 -0.14969,0.004 -0.19276,-0.0604 -0.23538,-0.351 -0.18409,-1.25819 -0.97434,-3.12925 -1.50839,-3.57142 -0.35656,-0.29522 -0.57703,-0.33948 -1.39564,-0.28019 -0.40077,0.029 -0.75605,0.0313 -0.78949,0.005 -0.0334,-0.0263 -0.18141,-0.33632 -0.32884,-0.68891 -0.30575,-0.73119 -0.78241,-1.45984 -1.19318,-1.82391 -0.45189,-0.40051 -0.83059,-0.46541 -2.07266,-0.35518 l -1.128,0.1001 -0.33962,-0.53732 c -0.42347,-0.66999 -0.96527,-1.19162 -1.44717,-1.39327 -0.32711,-0.13691 -0.62301,-0.13334 -2.5576,0.0309 z M 39.85608,58.514522 c 0.28261,0.22736 0.71679,0.59132 0.96486,0.80879 l 0.45105,0.39541 -0.41228,0.1225 c -0.22674,0.0674 -0.5861,0.20413 -0.79858,0.30387 l -0.3863,0.18137 -1.18419,-0.94602 c -0.65129,-0.52032 -1.19551,-0.96293 -1.20938,-0.9836 -0.0458,-0.0681 0.36809,-0.27524 0.81698,-0.40882 0.58712,-0.17474 1.06362,-0.032 1.75783,0.52654 z m 44.77809,13.64604 c 0.32148,0.34285 0.59058,0.78185 0.50152,0.81814 -0.023,0.009 -0.73006,0.0699 -1.57121,0.13452 -1.27959,0.0983 -1.53914,0.0941 -1.58923,-0.0253 -0.0329,-0.0785 -0.22699,-0.37181 -0.43125,-0.65171 -0.20427,-0.27991 -0.36456,-0.53551 -0.35623,-0.56799 0.0148,-0.0572 0.38836,-0.10657 1.73038,-0.22846 0.84627,-0.0769 1.27861,0.0544 1.71592,0.52114 z m -49.4928,-14.52223 0.74536,0.59778 -0.22349,0.16384 c -0.61606,0.45158 -0.45343,0.49069 -1.53541,-0.36929 -0.53424,-0.42461 -0.96261,-0.80071 -0.95193,-0.83575 0.033,-0.10822 0.8296,-0.2716 1.03034,-0.21133 0.10435,0.0314 0.52519,0.32598 0.93513,0.65475 z m 53.84439,16.31921 c 0.12969,0.15394 0.23034,0.29832 0.22369,0.32084 -0.007,0.0225 -0.56985,0.0864 -1.25156,0.14192 l -1.23947,0.10097 -0.1825,-0.40034 c -0.10038,-0.2202 -0.17651,-0.42552 -0.16917,-0.45629 0.007,-0.0306 0.43598,-0.0917 0.95256,-0.13535 1.04141,-0.0881 1.28405,-0.0257 1.66645,0.42826 z M 42.47907,60.667072 c 0.19501,0.19571 0.26991,0.77516 0.18681,1.44533 -0.0769,0.61999 -0.74522,2.63644 -0.9013,2.71938 -0.0454,0.0241 0.0486,-0.3862 0.20874,-0.91177 0.33616,-1.1032 0.37402,-1.66256 0.14428,-2.13145 -0.14584,-0.29764 -0.19244,-0.3301 -0.60085,-0.41845 -1.168,-0.25266 -3.30195,1.11066 -6.03676,3.85673 -3.41221,3.42621 -6.24675,8.12089 -6.44316,10.67138 -0.0423,0.54951 -0.0152,0.76035 0.13341,1.03932 0.40886,0.76724 1.33095,0.62759 3.07583,-0.4658 0.71346,-0.44708 0.47465,-0.21438 -0.41396,0.40336 -1.24573,0.866 -2.40833,1.32557 -2.94201,1.16295 -1.41851,-0.43223 -0.52471,-3.87307 2.05216,-7.9002 2.55818,-3.99792 6.31402,-7.76341 9.18633,-9.20994 1.16957,-0.58901 1.93846,-0.67434 2.35051,-0.26083 z m 38.1099,11.71238 c 0.19152,0.1736 0.53418,0.69883 0.85592,1.31194 2.1875,4.16858 3.01242,12.53289 1.73911,17.6339 -0.53533,2.14457 -1.34095,3.04854 -2.22454,2.49605 -0.44548,-0.27856 -1.02091,-1.11543 -1.45692,-2.11884 -0.53355,-1.2279 -0.52007,-1.32992 0.042,-0.31753 0.26611,0.47935 0.61465,0.99732 0.77453,1.15105 0.63669,0.61223 1.34317,0.54577 1.8173,-0.17094 0.29213,-0.44159 0.75067,-1.87592 0.89058,-2.78563 0.59942,-3.89853 -0.0247,-10.52906 -1.32695,-14.09675 -0.83237,-2.28046 -1.96634,-3.09316 -2.87924,-2.06357 -0.25301,0.28537 -0.3368,0.47834 -0.64558,1.48688 -0.23619,0.77232 -0.37386,1.12357 -0.4118,1.05295 -0.0341,-0.0634 0.1354,-0.73733 0.42095,-1.67443 0.45304,-1.4868 0.49422,-1.5857 0.79087,-1.89985 0.17213,-0.18227 0.40654,-0.36193 0.52092,-0.39923 0.2953,-0.0963 0.72151,0.0573 1.09293,0.39398 z M 29.98236,57.618162 c 0.22269,0.19226 0.41505,0.3686 0.42746,0.39188 0.0314,0.0589 -0.41293,0.45764 -0.48529,0.4356 -0.13677,-0.0417 -1.2175,-0.94053 -1.19998,-0.99803 0.0331,-0.10869 0.54579,-0.27258 0.70287,-0.22471 0.0825,0.0251 0.33224,0.203 0.55494,0.39526 z m 62.59286,19.02403 c 0.11888,0.13352 0.2064,0.2748 0.19446,0.31396 -0.012,0.0392 -0.37535,0.0971 -0.80757,0.12879 l -0.78589,0.0576 -0.0923,-0.24543 c -0.0777,-0.20668 -0.0853,-0.46546 -0.0131,-0.44491 0.0113,0.003 0.26878,-0.0178 0.57219,-0.0468 0.66902,-0.0637 0.66337,-0.0652 0.93218,0.23671 z M 34.93281,60.440372 c -1.61497,1.34841 -4.26057,4.32901 -4.09894,4.61795 0.0284,0.0508 0.33288,0.3184 0.67651,0.59459 l 0.62481,0.50217 0.72511,-0.7304 c 0.39881,-0.40172 1.11399,-1.0538 1.58927,-1.44907 0.89266,-0.74237 2.71309,-2.02484 2.75707,-1.94232 0.0137,0.0257 -0.27561,0.29854 -0.64293,0.60628 -0.83096,0.69616 -2.62296,2.52841 -3.5773,3.65764 -0.77872,0.92142 -2.70039,3.58963 -3.09756,4.3009 -0.13472,0.24127 -0.27534,0.42942 -0.3125,0.41809 -0.076,-0.0232 -2.18875,-1.70763 -2.37027,-1.88978 -0.10785,-0.10828 -0.0709,-0.19143 0.47719,-1.07482 1.94438,-3.13365 4.61128,-6.04504 6.84068,-7.46781 0.51577,-0.32915 0.71503,-0.39905 0.40886,-0.14342 z m 51.66764,17.04795 c 0.58839,1.73183 0.9882,4.10579 1.08781,6.45908 0.0482,1.13836 0.0154,3.1892 -0.0547,3.41924 -0.0299,0.098 -0.46566,0.17013 -1.60308,0.26542 -0.85915,0.072 -1.57452,0.10755 -1.58971,0.079 -0.0152,-0.0285 -0.014,-0.42447 0.002,-0.87989 0.11917,-3.25737 -0.33704,-7.28275 -1.13933,-10.05309 -0.13023,-0.44969 -0.20528,-0.79408 -0.16678,-0.76531 0.29519,0.22055 1.36426,3.45779 1.73773,5.26197 l 0.20971,1.0131 0.79684,-0.0682 c 0.43826,-0.0376 0.83278,-0.0863 0.87671,-0.10839 0.2434,-0.12224 -0.17342,-3.54239 -0.66686,-5.47169 -0.11452,-0.44781 -0.19997,-0.8354 -0.18986,-0.8613 0.0308,-0.0786 0.38931,0.79883 0.6989,1.71007 z M 29.67859,60.159082 c -0.38213,0.44279 -0.96724,1.18295 -1.30025,1.64478 l -0.60548,0.83972 0.65028,0.53922 c 0.35766,0.29656 0.65933,0.53174 0.67039,0.52261 0.0113,-0.009 0.22515,-0.21524 0.47577,-0.45802 0.25062,-0.24279 0.68387,-0.62025 0.96276,-0.83881 0.59366,-0.46522 2.13547,-1.44591 2.17034,-1.38046 0.0132,0.0247 -0.27935,0.31164 -0.6501,0.63751 -0.79413,0.69799 -1.96093,1.91015 -2.58879,2.68944 -0.64924,0.80581 -2.00653,2.71951 -2.4851,3.50383 -0.22737,0.37261 -0.42812,0.68803 -0.44614,0.70092 -0.0811,0.0581 -2.25885,-1.77801 -2.22819,-1.87864 0.0185,-0.0606 0.30863,-0.56046 0.64479,-1.11073 1.17871,-1.92943 2.68338,-3.87522 3.92724,-5.07855 0.65676,-0.63535 1.43325,-1.25801 1.47382,-1.18186 0.0129,0.0242 -0.28922,0.40625 -0.67134,0.84904 z m 61.04301,18.3743 c 0.52652,1.76223 0.78581,5.00859 0.61305,7.67525 -0.034,0.52403 -0.0753,0.95975 -0.0918,0.9683 -0.0653,0.0337 -2.84774,0.25043 -2.85872,0.22257 -0.007,-0.0164 5.2e-4,-0.62865 0.0155,-1.36058 0.0529,-2.58366 -0.19904,-5.22054 -0.67642,-7.08009 -0.10939,-0.42613 -0.23231,-0.90549 -0.27317,-1.06524 -0.11148,-0.43594 0.66059,1.11602 0.90733,1.82386 0.11788,0.33822 0.3073,0.97951 0.42091,1.42509 l 0.20656,0.81017 0.79467,-0.0676 c 0.47287,-0.0402 0.8089,-0.1143 0.8298,-0.1829 0.0512,-0.16797 -0.0671,-2.25665 -0.1826,-3.2244 -0.0545,-0.45723 -0.0917,-0.85593 -0.0825,-0.88601 0.0306,-0.10039 0.17002,0.24744 0.37741,0.94159 z M 27.07965,59.196002 c -0.18049,0.14909 -0.61773,0.56905 -0.97165,0.93324 l -0.64348,0.66217 0.3378,0.29832 c 0.1858,0.16407 0.3813,0.31403 0.43444,0.33324 0.0531,0.0196 0.33303,-0.16421 0.62198,-0.40759 0.61692,-0.51967 1.68822,-1.23678 1.73012,-1.15816 0.0161,0.0301 -0.0753,0.1357 -0.20288,0.23466 -0.6221,0.48239 -1.92483,2.00046 -2.93367,3.41862 -0.55547,0.78084 -1.51996,2.33982 -1.59022,2.5704 -0.0771,0.25308 -0.26198,0.18731 -0.85094,-0.30269 l -0.56511,-0.47015 0.24573,-0.77275 c 0.48782,-1.53404 2.08571,-3.86711 3.3336,-4.86745 0.44381,-0.35577 1.31574,-0.86805 1.3543,-0.7957 0.0155,0.029 -0.1195,0.17476 -0.30003,0.32384 z m 66.42143,20.45399 c 0.49887,1.22124 0.67609,2.50294 0.60432,4.37066 -0.0387,1.0065 -0.30378,2.67733 -0.45574,2.87225 -0.0794,0.10191 -1.41949,0.26855 -1.63392,0.20321 -0.0523,-0.016 -0.0751,-0.095 -0.0504,-0.17564 0.0756,-0.24803 0.1254,-1.83518 0.0989,-3.14936 -0.0314,-1.55625 -0.20034,-3.21427 -0.41372,-4.06069 -0.0896,-0.35536 -0.1415,-0.65751 -0.11536,-0.67144 0.0672,-0.0359 0.5769,1.24325 0.7739,1.94204 0.0909,0.32228 0.16981,0.60215 0.17543,0.62194 0.0207,0.0726 0.95012,-0.0131 1.01277,-0.0935 0.073,-0.0936 -0.10425,-1.21832 -0.30829,-1.95654 -0.22108,-0.79985 -0.21779,-0.76581 -0.0587,-0.60614 0.078,0.0783 0.2449,0.39469 0.37091,0.70317 z M 24.94182,59.342172 c 0.0738,0.074 0.10494,0.16033 0.0692,0.19175 -0.0742,0.0653 -0.50818,-0.24354 -0.47861,-0.34054 0.0277,-0.0909 0.25168,-0.009 0.40939,0.1488 z m 70.33101,21.41112 c -0.0114,0.0373 -0.16141,0.0683 -0.33336,0.0686 -0.24895,5.1e-4 -0.30589,-0.0215 -0.27947,-0.10827 0.0327,-0.10737 0.20239,-0.12908 0.4877,-0.0624 0.0803,0.0185 0.13651,0.0647 0.12512,0.10207 z M 24.16718,59.535362 c -0.10411,0.10372 -0.0943,0.15634 0.0534,0.28674 0.13659,0.12063 0.21564,0.14514 0.32295,0.10011 0.0781,-0.0327 0.13212,-0.0275 0.11998,0.0115 -0.0284,0.091 -0.67396,0.88672 -0.75433,0.92955 -0.0333,0.0178 -0.17763,-0.055 -0.32046,-0.16228 -0.19683,-0.14739 -0.24577,-0.24076 -0.20182,-0.38501 0.0721,-0.23639 0.43354,-0.67995 0.66913,-0.82099 0.22767,-0.13631 0.2722,-0.12018 0.11129,0.0399 z m 71.43121,22.37328 c -0.003,0.25975 -0.038,0.50031 -0.077,0.53459 -0.0741,0.0652 -0.7021,0.10241 -0.72008,0.0427 -0.0559,-0.18574 -0.0846,-1.26218 -0.0332,-1.24654 0.0372,0.0113 0.0687,0.0624 0.07,0.11343 0.002,0.0624 0.10052,0.0889 0.30201,0.0809 0.21379,-0.008 0.28209,-0.0447 0.23848,-0.12655 -0.11181,-0.20981 -0.0156,-0.27399 0.10614,-0.0708 0.0658,0.10996 0.11696,0.41245 0.11362,0.6722 z M 23.5563,60.888262 c 0.214,0.15643 0.28345,0.34545 0.10717,0.29174 -0.13628,-0.0415 -0.43701,-0.33747 -0.4153,-0.40869 0.0265,-0.0869 0.0319,-0.0849 0.30811,0.11699 z m 71.80557,21.90614 c -0.19658,0.0985 -0.56264,0.0991 -0.53269,8.2e-4 0.0261,-0.0857 0.38553,-0.15497 0.56567,-0.10906 0.10646,0.0273 0.1025,0.0403 -0.033,0.10823 z m -57.97786,-15.2688 c 0.0884,0.31297 -0.20792,1.43195 -0.36639,1.38367 -0.0441,-0.0134 -0.0191,-0.20996 0.0556,-0.43673 0.51393,-1.55963 -1.56919,-0.40897 -2.48099,1.37046 -0.32949,0.64303 -0.36049,1.16338 -0.0753,1.25029 0.10714,0.0327 0.33884,-0.002 0.5149,-0.0774 0.49627,-0.21201 0.42688,-0.0686 -0.10679,0.22067 -0.52095,0.28239 -0.71616,0.30916 -0.95118,0.13047 -0.69181,-0.52601 0.85037,-3.11249 2.34632,-3.93514 0.5841,-0.32121 0.95579,-0.28847 1.0637,0.0937 z m 43.44653,13.44511 c 0.53646,0.93047 0.70646,2.67255 0.36889,3.78037 -0.16207,0.5319 -0.21698,0.62472 -0.43989,0.74351 -0.33569,0.17888 -0.53155,0.0531 -0.85116,-0.54665 -0.27868,-0.52294 -0.23749,-0.69492 0.0576,-0.2402 0.3533,0.54455 0.65747,0.46899 0.86592,-0.21513 0.18703,-0.6138 0.20727,-1.35627 0.0583,-2.139 -0.12311,-0.64696 -0.47847,-1.38228 -0.70072,-1.45 -0.18947,-0.0577 -0.47446,0.22367 -0.58536,0.57799 -0.0871,0.27761 -0.10931,0.30029 -0.14526,0.1469 -0.0492,-0.20964 0.23804,-0.94556 0.45232,-1.15913 0.25055,-0.24967 0.59458,-0.0621 0.91942,0.50134 z M 22.9883,66.232182 c 0.20676,0.16395 0.43885,0.29364 0.51579,0.2882 0.1007,-0.007 0.11448,0.0226 0.0493,0.10634 -0.0499,0.0639 -0.13237,0.10256 -0.1834,0.0859 -0.18764,-0.0614 -0.98847,-0.88361 -0.98634,-1.01262 0.002,-0.10925 0.0228,-0.1001 0.1155,0.0504 0.0623,0.101 0.28246,0.31783 0.48922,0.48178 z m 70.35393,21.16836 c -0.14173,0.14122 -1.29949,0.2744 -1.39929,0.16095 -0.10085,-0.11462 -0.0196,-0.24939 0.096,-0.15924 0.1282,0.0999 1.03668,0.0278 1.17377,-0.0933 0.15885,-0.14023 0.27775,-0.0562 0.12951,0.0915 z M 23.49661,69.837112 c 0.0246,0.11719 0.29597,0.39898 0.68065,0.70671 l 0.63982,0.51181 0.51865,-0.74299 c 0.53348,-0.76425 0.86095,-1.08978 0.59068,-0.58716 -0.32769,0.60936 -0.82959,1.68867 -0.91815,1.97437 -0.0522,0.16823 -0.11597,0.29943 -0.14183,0.29155 -0.0259,-0.008 -0.38334,-0.27995 -0.79442,-0.60462 -1.10472,-0.87248 -1.18758,-1.18206 -0.67224,-2.51142 0.43141,-1.11285 0.54125,-1.16899 0.28468,-0.14547 -0.12584,0.50174 -0.21033,1.00001 -0.18786,1.10721 z m 67.40761,19.05773 c -0.17036,1.28204 -0.54637,1.95685 -1.18396,2.12498 -0.25791,0.068 -1.74708,0.20083 -1.86133,0.16601 -0.0136,-0.004 0.0208,-0.24473 0.0764,-0.53467 0.0556,-0.28992 0.14871,-0.88748 0.20689,-1.32791 0.0582,-0.44042 0.1289,-0.81308 0.15716,-0.82814 0.0282,-0.0151 0.0628,0.4161 0.0769,0.95812 l 0.0255,0.98549 0.82707,-0.069 c 0.49387,-0.0412 0.88541,-0.12468 0.97184,-0.20729 0.0834,-0.0798 0.25901,-0.51018 0.41436,-1.01568 0.1487,-0.4824 0.29183,-0.87064 0.31897,-0.86249 0.0271,0.008 0.0138,0.28289 -0.0298,0.61051 z m -3.77013,1.70059 c -0.10063,0.91349 -0.31192,1.60903 -0.66251,2.17986 -0.33369,0.54383 -0.53886,0.72388 -0.9448,0.82907 -0.35226,0.0913 -2.34491,0.26286 -2.50087,0.21534 -0.0807,-0.0246 -0.0626,-0.0907 0.084,-0.30918 0.2667,-0.39726 0.80178,-2.27466 0.88213,-3.09501 0.037,-0.37809 0.0871,-0.69798 0.11118,-0.71082 0.0736,-0.0392 0.047,1.15106 -0.0441,1.97485 -0.0473,0.42749 -0.0833,0.78828 -0.0801,0.80176 0.003,0.0136 0.53849,-0.0243 1.18939,-0.0839 l 1.18347,-0.10845 0.18056,-0.34672 c 0.18278,-0.35095 0.52998,-1.66035 0.54754,-2.06497 0.007,-0.15366 0.0283,-0.18756 0.0715,-0.11212 0.0341,0.0594 0.0261,0.43309 -0.0177,0.83026 z M 25.92125,72.028542 c -0.16329,0.4322 -0.33286,0.99347 -0.37665,1.24733 l -0.0799,0.46148 0.90425,0.7212 c 0.49734,0.39665 0.92562,0.73834 0.95172,0.75929 0.026,0.021 0.17751,-0.23421 0.33646,-0.56702 0.32787,-0.68653 1.01468,-1.79862 1.0592,-1.71508 0.0162,0.0305 -0.10796,0.32566 -0.276,0.65604 -0.34388,0.67609 -0.88233,2.35045 -0.95389,2.96612 l -0.0472,0.40608 -1.08415,-0.87302 c -1.22318,-0.98499 -1.28404,-1.08207 -1.24437,-1.98491 0.0183,-0.41784 0.0965,-0.75281 0.30835,-1.32137 0.26844,-0.72054 0.68951,-1.57534 0.7647,-1.55243 0.019,0.006 -0.0991,0.36411 -0.26241,0.79631 z" id="path1-5-3" sodipodi:nodetypes="ssssccsssscsscscscsscsssssscsssscscssssssssscsssscssscssssssssscsssssscsssssscsscssssscsssscsccscssscsssscssssssssssssssssssssssssssssscsscssssssssssssssscsscssssscssssssssssscsssscsssccsssccsscscssssssssssssssssssssscsssssssscscsssssscssssssssscssssssssssssssscscsscsscscssccssssssssssssssssscsssscsscsssssscsssssscsssscscscssssssssssscssscsssssscssssccsscsssccsssssssscscscccccsssssscssssccc" class="XpJPltcz_0"></path>
    <path id="path197-7" style="fill: none; fill-opacity: 1; stroke: url(&quot;#linearGradient4-7&quot;); stroke-width: 5.292; stroke-linecap: round; stroke-linejoin: round; stroke-opacity: 1;" d="m -448.12227,113.80572 c -2.5723,0.63916 -6.05885,1.50548 -9.05489,0.36574 -2.99604,-1.13974 -4.8366,-3.75788 -3.36676,-6.8938 1.46983,-3.13592 6.9418,-7.380055 17.92575,-7.801358 10.98395,-0.421303 26.44749,2.569208 40.46959,6.782818 14.0221,4.2136 23.87238,8.81559 35.16626,10.25413 11.29388,1.43854 22.45636,-0.63035 29.58413,-8.53609 7.12778,-7.90575 10.15851,-22.758688 6.61699,-31.602003 -3.54152,-8.843315 -14.69343,-14.820443 -24.93022,-9.773107 -10.23679,5.047336 -19.14343,19.704527 -20.98872,30.438185 -1.84528,10.733655 4.31466,16.496275 10.55129,18.596735 6.23663,2.10046 14.44184,1.22529 21.56305,-2.06944 7.12122,-3.29473 14.59467,-9.45154 25.61861,-20.62764 11.02393,-11.176099 26.25987,-28.018802 31.67963,-37.073244 5.41975,-9.054442 1.21246,-10.737438 -2.90694,-7.877692 -4.1194,2.859745 -8.52627,10.493278 -13.96565,19.607104 -5.43938,9.113825 -12.00702,19.873124 -14.78327,28.568938 -2.77624,8.695814 -1.65472,16.179644 1.64417,17.608344 3.29888,1.4287 11.18773,-2.71868 17.00164,-8.09937 5.8139,-5.38069 12.01069,-13.672185 11.08122,-12.337877 -0.92947,1.334308 -9.35455,12.808547 -9.20059,15.999767 0.15395,3.19121 11.30486,-2.10406 16.35561,-5.91411 5.05075,-3.81006 9.64659,-8.833529 9.93755,-7.490238 0.29097,1.34329 -3.71617,9.083188 -5.7655,12.055098 -2.04933,2.97191 -2.18201,0.97646 2.6415,-2.77213 4.8235,-3.74858 17.28738,-11.413124 21.738,-10.940714 4.45062,0.47241 1.76912,8.041804 0.50708,12.596984 -1.26204,4.55517 -0.96808,5.9483 1.31561,4.20734 2.28368,-1.74097 7.89729,-7.67754 12.86412,-11.349908 4.96683,-3.67237 10.84715,-6.300011 15.06848,-5.913133 4.22134,0.386877 8.76918,4.257034 10.59414,7.746241 1.82496,3.4892 2.30381,9.08363 -2.75919,11.54907 -5.063,2.46544 -16.95335,2.81857 -19.8694,-0.0344 -2.91604,-2.853 2.3034,-9.77148 6.97119,-9.65942 4.66779,0.11205 9.8245,6.95772 16.00328,9.92466 6.17878,2.96694 13.62123,2.33489 22.16625,-0.99106 8.54502,-3.32596 18.25448,-9.36699 26.84137,-13.910403 8.58688,-4.543415 16.09076,-7.608111 22.7015,-8.190386 6.61074,-0.582275 12.4019,1.300181 15.28323,3.76331 2.88134,2.463129 2.81952,5.487809 0.54726,7.687919 -2.27226,2.2001 -6.81793,3.62234 -11.3324,5.03482" sodipodi:nodetypes="ccccccccccccccccccccccccccccccccccccccccc" transform="translate(350.26588,22.813469)" inkscape:original-d="m -448.12227,113.80572 c -2.5723,0.63916 -6.05885,1.50548 -9.79569,2.434 -2.25524,-3.208 -4.0958,-5.82614 -5.91183,-8.40939 4.7557,-3.68859 10.22767,-7.932725 15.48151,-12.007677 16.71406,3.232346 32.1776,6.222857 49.25139,9.524767 10.97041,5.12531 20.82069,9.72729 31.64548,14.78456 11.76297,-2.18018 22.92545,-4.24908 34.38818,-6.37362 2.79281,-13.68695 5.82355,-28.539889 8.37845,-41.060837 -9.63794,-5.165681 -20.78985,-11.142812 -31.6064,-16.940193 -9.65703,15.892055 -18.56367,30.549249 -28.21824,46.43725 5.964,5.57931 12.12394,11.34193 17.43149,16.30714 7.51936,2.55143 15.74635,1.88044 22.54334,-2.40447 7.07001,-5.82445 14.54346,-11.98126 21.71878,-17.892467 14.87255,-16.440994 30.10849,-33.283697 45.01731,-49.764778 -4.06931,-1.6278 -8.2766,-3.310797 -12.28731,-4.915157 -4.22809,7.323851 -8.63496,14.957384 -12.9533,22.437567 -6.56042,10.747468 -13.12806,21.506768 -19.67865,32.238128 0.9981,6.660267 2.11962,14.144097 2.9984,20.008127 5.71899,-3.00663 13.60784,-7.15401 19.51326,-10.25865 5.72239,-7.65674 11.91918,-15.948237 17.65059,-23.617037 -7.59035,10.33742 -16.01543,21.811657 -23.37545,31.835387 7.66793,-3.6413 18.81884,-8.93657 24.35337,-11.56477 4.56697,-4.991907 9.16281,-10.015377 13.70746,-14.982897 -3.96272,7.6541 -7.96986,15.393997 -11.95227,23.086117 -0.11625,-1.7483 -0.24893,-3.74375 -0.34889,-5.24712 9.74697,-5.9938 22.21085,-13.658347 34.01921,-20.919777 -2.90712,8.206252 -5.58863,15.775647 -8.37524,23.641747 0.26254,1.24425 0.5565,2.63738 0.78908,3.73963 4.33479,-4.58418 9.9484,-10.52075 14.7068,-15.552906 5.17526,-2.312581 11.05558,-4.940221 15.99521,-7.147513 3.50304,2.981044 8.05088,6.851202 11.34332,9.653029 0.35748,4.17658 0.83633,9.77101 1.23163,14.38943 -10.5213,0.31246 -22.41165,0.66559 -32.78078,0.97353 4.53704,-6.01394 9.75648,-12.93242 14.34332,-19.012376 4.74874,6.304066 9.90545,13.149736 14.84958,19.713196 7.41343,-0.62958 14.85588,-1.26163 22.26605,-1.89093 9.67987,-6.02261 19.38933,-12.06364 29.08602,-18.096717 7.47708,-3.053751 14.98096,-6.118446 22.42812,-9.159979 5.77432,1.876982 11.56548,3.759436 17.39013,5.65278 -0.062,3.032916 -0.1238,6.057596 -0.18506,9.055096 -4.48326,1.40271 -13.5434,4.23743 -13.5434,4.23743" inkscape:path-effect="#path-effect7-7" class="XpJPltcz_1"></path>
    <path style="fill:#d392bc;fill-opacity:1;stroke:none;stroke-width:0.264583px;stroke-linecap:butt;stroke-linejoin:miter;stroke-opacity:1" d="m 59.27413,79.209282 c 1.17497,0.40886 3.4723,0.89139 5.95432,1.38605 l -2.42562,3.49957 c -2.09989,-0.27977 -5.87095,-1.43775 -6.00431,-1.47777 z" id="path359" sodipodi:nodetypes="ccccc" class="XpJPltcz_2"></path>
    <path style="font-weight:bold;font-size:25.4px;line-height:2.65;font-family:Caudex;-inkscape-font-specification:'Caudex Bold';text-align:center;word-spacing:3.96875px;text-anchor:middle;fill:#d291bc;stroke-width:0.264583" d="m -17.913211,244.72132 q -0.305161,0.56816 0.13551,1.05825 0.44654,0.47917 0.223538,0.89436 -0.240608,0.44797 -0.732281,0.18388 l -3.703939,-1.98941 q -0.5026,-0.26995 -0.261992,-0.71792 0.223002,-0.41519 0.858144,-0.31338 0.64101,0.0909 0.946171,-0.47727 l 6.54173,-12.12713 q 0.299292,-0.55723 -0.141379,-1.04732 -0.440671,-0.4901 -0.2118,-0.91621 0.240607,-0.44797 0.743207,-0.17802 l 6.4463835,3.4624 q 1.1800161,0.6338 2.2404222,1.75239 1.0772007,1.11354 1.1351837,2.73551 0.024009,1.26584 -0.6978134,2.60975 -0.7143325,1.27754 -1.9929587,1.9282 -1.1149274,0.55556 -2.5078304,0.37055 -1.3929029,-0.18502 -2.3434719,-0.69557 l -3.736717,-2.00702 z m 6.778091,-12.61962 -3.192452,5.94379 2.261698,1.21477 q 0.710195,0.38145 1.526022,0.56624 0.8326221,0.17972 1.621966,-0.058 1.2251914,-0.34148 1.9294087,-1.65261 0.6748749,-1.2565 0.2795714,-2.53875 -0.4272708,-1.32758 -1.9459951,-2.1433 z m 6.9217749,19.76727 4.6135636,1.89014 q 0.9181221,0.37615 1.9217382,-0.11066 1.0150926,-0.48212 1.5818922,-0.78602 0.4441473,-0.23352 0.7081074,-0.12538 0.5279202,0.21629 0.3351441,0.68683 -0.070528,0.17214 -0.151976,0.2728 l -2.1672998,2.77105 -10.7764583,-4.41504 q -0.4934906,-0.20218 -0.3007145,-0.67272 0.1786706,-0.43611 0.8324285,-0.39612 0.6584598,0.0285 0.9029564,-0.56826 l 5.223764,-12.75042 q 0.2444966,-0.59678 -0.2493981,-1.02697 -0.4891929,-0.44167 -0.3058204,-0.88926 0.1927761,-0.47054 0.7206963,-0.25425 l 10.9371297,4.48087 -1.3024146,3.179 q -0.1927761,0.47053 -0.7206964,0.25425 -0.2869131,-0.11755 -0.4420221,-0.85124 -0.2426235,-1.01079 -0.454711,-1.53998 -0.2073857,-0.54066 -0.758259,-0.76635 l -4.6135636,-1.89014 -2.3650345,5.77269 2.3412114,0.95918 q 0.5279202,0.21628 0.9972455,-0.27498 0.4740271,-0.50274 0.9789943,-0.29586 0.5164437,0.21158 0.3236675,0.68212 l -1.1942719,2.91504 q -0.1927761,0.47053 -0.7092198,0.25895 -0.4934906,-0.20218 -0.517656,-0.89563 -0.024165,-0.69344 -0.56356211,-0.91443 l -2.27235219,-0.93097 z m 24.1158981,8.45104 q 0.171808,0.25571 0.602654,0.41799 0.575573,0.24248 0.455904,0.65974 l -0.01368,0.0477 q -0.208294,0.45635 -0.685164,0.31959 l -3.183104,-0.9129 q -0.2742,-0.0786 -0.741483,-1.28355 -0.467284,-1.20491 -1.027915,-2.75915 -0.560632,-1.55423 -1.151855,-3.18176 -0.579302,-1.6241 -0.949818,-2.4916 l -1.44253,-0.41371 -1.712973,5.97279 q -0.1777941,0.61993 0.356749,1.00547 0.537962,0.37363 0.408036,0.82666 -0.140184,0.48879 -0.676662,0.33493 l -4.0414689,-1.15908 q -0.5483999,-0.15728 -0.4082164,-0.64607 0.1299261,-0.45303 0.7841378,-0.48474 0.6576308,-0.0436 0.8354245,-0.66357 l 3.798629,-13.24505 q 0.174375,-0.60801 -0.360168,-0.99355 -0.534543,-0.38555 -0.401198,-0.8505 0.140184,-0.48879 0.688584,-0.33151 l 7.033825,2.01727 q 1.287547,0.36927 2.560967,1.23767 1.288761,0.8599 1.689236,2.43272 0.291786,1.23199 -0.128764,2.69836 -0.427298,1.39993 -1.538948,2.30683 -0.903626,0.72142 -2.172956,0.87348 -1.257407,0.15547 -1.800724,0.0255 z m -5.900891,-17.39448 -1.859995,6.48543 2.467799,0.70775 q 0.774913,0.22224 1.61137,0.22989 0.851798,-8.5e-4 1.572818,-0.40047 1.124965,-0.59343 1.535258,-2.02404 0.393197,-1.371 -0.264924,-2.54032 -0.69897,-1.20685 -2.356092,-1.6821 z m 13.331169,18.84832 q 0.926652,0.10192 1.843059,-0.16329 0.91858,-0.27743 1.577014,-1.00426 0.691548,-0.77133 0.911025,-2.00459 l 0.0239,-0.13432 q 0.189365,-1.27641 -0.609077,-2.09875 -0.358657,-0.39136 -0.926549,-0.66879 -1.209045,-0.56789 -2.550543,-0.95779 -1.327115,-0.39995 -2.488353,-1.23647 -1.07442,-0.75808 -1.461431,-1.91032 -0.372628,-1.16227 -0.155323,-2.38332 0.423743,-2.38104 2.368211,-3.60965 2.018558,-1.291 4.643813,-0.82379 l 0.378525,0.0674 q 2.798892,0.62408 4.667925,2.36759 l -0.785505,2.64419 q -0.127071,0.43089 -0.615491,0.34396 l -0.06105,-0.0109 q -0.361969,-0.0896 -0.497009,-0.60494 -0.301538,-1.13702 -1.113535,-2.02476 -0.799788,-0.88557 -1.841198,-1.1213 l -0.183157,-0.0326 q -1.050102,-0.18688 -1.908975,0.0382 -0.572858,0.17519 -0.934619,0.43834 -0.349551,0.26532 -0.664126,0.68803 -0.250522,0.34593 -0.439473,0.84138 -0.152838,0.36332 -0.21151,0.693 -0.07823,0.43958 -0.01128,0.84201 0.09944,0.78612 0.591589,1.27682 0.358657,0.39136 0.837557,0.60256 0.29005,0.1398 0.704379,0.28912 0.414329,0.14931 0.8775,0.30733 0.67644,0.23375 1.436181,0.49493 0.771951,0.26336 1.489887,0.61787 1.230465,0.65989 1.753757,1.47106 0.368385,0.61983 0.560649,1.3091 0.191953,0.90337 0.01376,1.90463 -0.482416,2.71073 -3.014125,4.12456 -1.31511,0.73594 -2.787508,0.94001 -1.186383,0.15418 -2.464966,-0.023 -0.270804,-0.0356 -0.539435,-0.0834 -1.746099,-0.31074 -3.408796,-1.16092 l -0.603386,-3.54643 q -0.01925,-0.1042 -0.0019,-0.20188 0.0326,-0.18316 0.185123,-0.33238 0.23531,-0.26045 0.626046,-0.19091 0.314472,0.14414 0.445994,0.60845 0.455824,1.75655 1.461327,2.47718 0.825347,0.60038 2.241763,0.85245 0.305263,0.0543 0.639292,0.0886 z m 17.788117,-13.6064 q -3.615119,-0.21499 -5.207377,1.98382 -1.592258,2.19881 -1.798595,5.47895 -0.206337,3.28014 1.469164,5.6845 1.688658,2.39277 4.546391,2.59739 l 0.06189,0.004 q 2.785022,0.17519 4.755625,-2.11166 1.985316,-2.3232 2.171408,-5.28151 l 0.0047,-0.0743 q 0.16523,-3.02176 -1.204637,-5.5436 -1.369868,-2.52183 -4.79854,-2.73751 z m 0.09967,-1.58437 0.123779,0.008 q 4.134211,0.26006 6.821503,2.97661 2.48777,2.53002 2.246395,6.36716 -0.0218,0.34658 -0.06836,0.69161 -0.533235,4.32828 -3.47009,6.56677 -2.924478,2.23928 -6.849903,2.21603 -0.285469,-0.006 -0.582538,-0.0242 -3.577207,-0.22502 -6.170149,-2.86107 -2.640117,-2.6763 -2.387841,-6.68674 0.01402,-0.2228 0.04119,-0.4572 0.418719,-4.28578 3.238803,-6.64346 2.820863,-2.37006 7.057212,-2.15328 z m 25.19522,14.21234 -0.895206,-12.1959 q -0.0463,-0.63082 -0.681099,-0.80807 -0.622427,-0.17816 -0.657836,-0.66055 -0.03722,-0.50713 0.519384,-0.54799 l 3.154112,-0.23152 q 0.568977,-0.0418 0.606201,0.46537 0.03541,0.48239 -0.566702,0.75043 -0.602111,0.26804 -0.555807,0.89887 l 1.192437,16.41465 -2.744577,-0.45763 -12.375643,-13.24344 0.885219,12.05984 q 0.04721,0.64319 0.682007,0.82044 0.633888,0.16488 0.668389,0.6349 0.03722,0.50714 -0.531752,0.5489 l -3.141743,0.23061 q -0.568978,0.0418 -0.606202,-0.46537 -0.0345,-0.47002 0.568518,-0.72569 0.602111,-0.26804 0.554899,-0.91123 L 55.481737,249.63 q -0.0463,-0.63082 -0.6811,-0.80807 -0.634796,-0.17724 -0.670205,-0.65964 -0.03722,-0.50713 0.531753,-0.54889 l 3.352017,-0.24605 z m 10.653272,-16.70196 q 1.018582,1.45773 2.343623,3.345 1.337175,1.88469 2.748574,3.88044 1.423532,1.99318 2.748573,3.88044 1.337175,1.8847 2.256554,3.17328 0.239943,0.35487 0.767806,0.57271 0.288198,0.10378 0.580822,0.1686 0.304757,0.0622 0.52715,0.1546 0.21026,0.0949 0.299186,0.21556 0.06652,0.0747 0.08707,0.17172 0.01798,0.0849 -0.01956,0.20698 -0.05339,0.22682 -0.36886,0.29361 l -4.101072,0.86834 q -0.2184,0.0462 -0.440793,-0.0461 -0.237096,-0.10192 -0.301755,-0.22768 -0.04925,-0.053 -0.0698,-0.15003 -0.04367,-0.20627 0.136191,-0.43451 0.09821,-0.13489 0.211126,-0.26022 0.110346,-0.13746 0.12805,-0.29333 0.0089,-0.0779 -0.0091,-0.16287 -0.03597,-0.16987 -0.164574,-0.35815 l -2.565583,-3.61494 -6.636941,1.40527 q -0.179029,0.95067 -0.394892,2.08663 -0.206298,1.12125 -0.424729,2.24507 -0.05082,0.23895 -0.02699,0.41139 0.0033,0.0754 0.0187,0.14817 0.02055,0.0971 0.0628,0.17686 0.06209,0.11362 0.155443,0.19528 0.105485,0.0791 0.202119,0.2361 0.03782,0.11877 0.0481,0.1673 0.01798,0.0849 -0.003,0.16544 -0.05568,0.4555 -0.468217,0.54284 l -3.130404,0.66282 q -0.303333,0.0642 -0.52715,-0.15461 -0.0051,-0.0243 -0.03968,-0.0677 -0.02055,-0.0971 -0.01241,-0.23824 0.06481,-0.29263 0.46051,-0.57924 0.151884,-0.12091 0.337598,-0.26165 0.185715,-0.14074 0.351589,-0.31531 0.329179,-0.36127 0.416836,-0.78551 l 3.628061,-17.17261 z m 3.851809,10.04889 -4.096024,-5.81367 q -0.236137,1.2797 -0.622176,3.28838 -0.373906,2.00612 -0.68114,3.66851 z m 13.755779,2.30225 4.725667,-1.58925 q 0.94043,-0.31627 1.38088,-1.34108 0.4522,-1.02876 0.682,-1.62944 0.18308,-0.4672 0.45346,-0.55813 0.54074,-0.18186 0.70283,0.30012 0.0593,0.17633 0.0636,0.30574 l 0.1741,3.51363 -11.003044,3.70034 q -0.540748,0.18185 -0.702835,-0.30012 -0.150227,-0.44671 0.370335,-0.84421 0.516609,-0.40927 0.311035,-1.02055 l -4.392174,-13.06023 q -0.201621,-0.59953 -0.86055,-0.61346 -0.65893,-0.0139 -0.813111,-0.47239 -0.162087,-0.48197 0.378661,-0.66382 l 3.985076,-1.34019 q 0.528993,-0.1779 0.69108,0.30407 0.154181,0.45846 -0.362428,0.86773 -0.516609,0.40926 -0.314989,1.00878 z m 25.472277,-25.61904 q 0.24326,0.44653 -0.25773,0.71946 -0.2505,0.13646 -0.95012,-0.18857 -0.94801,-0.44393 -1.49232,-0.61348 -0.55024,-0.18044 -1.07302,0.10435 l -2.46138,1.3409 6.79345,12.4703 q 0.30853,0.56633 0.95988,0.46572 0.65135,-0.10062 0.87681,0.31324 0.23732,0.43564 -0.25278,0.70263 l -3.69208,2.01134 q -0.50099,0.27293 -0.73831,-0.16272 -0.22546,-0.41386 0.2123,-0.90656 0.43775,-0.49269 0.12923,-1.05903 l -6.79345,-12.4703 -2.50495,1.36462 q -0.52278,0.28479 -0.68046,0.85089 -0.16361,0.5552 -0.29382,1.58651 -0.0845,0.75222 -0.34591,0.89461 -0.50099,0.27293 -0.74425,-0.17361 l -1.09764,-2.01485 q -0.37972,-0.69703 -0.18059,-1.03148 0.1932,-0.34534 1.11894,-0.84966 l 10.28119,-5.60089 q 1.00198,-0.54585 1.34741,-0.50806 0.35038,0.021 0.74197,0.73979 z m 19.46313,2.4761 q 0.30678,0.0281 0.70457,-0.20369 0.55134,-0.29344 0.79948,0.0627 l 0.0284,0.0407 q 0.22254,0.44958 -0.1845,0.73318 l -2.71701,1.89298 q -0.23405,0.16307 -1.4636,-0.23488 -1.22955,-0.39795 -2.78898,-0.94396 -1.55944,-0.54601 -3.19503,-1.11454 -1.62541,-0.57561 -2.53217,-0.83569 l -1.2313,0.85787 3.55201,5.09821 q 0.36868,0.52915 1.0051,0.35783 0.62933,-0.1815 0.89874,0.20519 0.29068,0.41722 -0.16724,0.73626 l -3.44968,2.40346 q -0.4681,0.32613 -0.75879,-0.0911 -0.26941,-0.38669 0.11887,-0.91418 0.38118,-0.53766 0.0125,-1.06682 l -7.87682,-11.3056 q -0.36158,-0.51898 -0.998,-0.34766 -0.63642,0.17133 -0.91292,-0.22554 -0.29069,-0.41722 0.17741,-0.74335 l 6.00388,-4.18301 q 1.09901,-0.7657 2.57629,-1.20544 1.48037,-0.457 2.95314,0.22497 1.1398,0.55117 2.01185,1.80283 0.81625,1.21495 0.81816,2.64961 -0.0107,1.15623 -0.69381,2.23681 -0.67295,1.07349 -1.1167,1.41288 z m -17.21694,-6.40044 3.85688,5.53578 2.10644,-1.4676 q 0.66145,-0.46084 1.19527,-1.10485 0.53692,-0.66128 0.68197,-1.47277 0.24965,-1.24715 -0.60113,-2.46828 -0.81533,-1.17025 -2.13772,-1.39771 -1.37727,-0.21945 -2.79174,0.76603 z m 14.64464,-13.73755 q 1.61107,0.75298 3.70232,1.72465 2.10047,0.96339 4.32076,1.98583 2.22952,1.01414 4.32077,1.98582 2.10047,0.96339 3.54104,1.61949 0.38525,0.18731 0.9513,0.11198 0.30148,-0.0542 0.58729,-0.14446 0.29504,-0.0985 0.53382,-0.12974 0.22955,-0.0229 0.36688,0.037 0.0949,0.0314 0.16128,0.10517 0.0581,0.0646 0.0866,0.18902 0.0672,0.22312 -0.17259,0.43873 l -3.11717,2.80286 q -0.166,0.14927 -0.40478,0.1805 -0.25629,0.0303 -0.37517,-0.0463 -0.0691,-0.0212 -0.13547,-0.095 -0.14098,-0.15678 -0.0994,-0.44438 0.0176,-0.16593 0.0527,-0.33092 0.0268,-0.17422 -0.0358,-0.31806 -0.0313,-0.0719 -0.0894,-0.13648 -0.11609,-0.12911 -0.32162,-0.22784 l -4.02952,-1.84742 -5.04465,4.536 q 0.32039,0.91279 0.70153,2.00445 0.38208,1.07414 0.75494,2.15657 0.0755,0.23234 0.18236,0.36975 0.0405,0.0636 0.0903,0.11896 0.0663,0.0738 0.14283,0.12175 0.11059,0.0674 0.23226,0.0914 0.1309,0.0157 0.29311,0.10338 0.0922,0.0839 0.12532,0.12083 0.058,0.0645 0.0801,0.14476 0.17957,0.4223 -0.13399,0.70424 l -2.37938,2.13947 q -0.23056,0.20731 -0.53382,0.12973 -0.0166,-0.0184 -0.0682,-0.0387 -0.0663,-0.0738 -0.12989,-0.20011 -0.0902,-0.28582 0.10912,-0.7319 0.0711,-0.18066 0.16151,-0.39541 0.0904,-0.21475 0.14678,-0.44887 0.10439,-0.47748 -0.0319,-0.88869 l -5.44606,-16.68538 z m 8.36092,6.77581 -6.45441,-2.98609 q 0.43548,1.22627 1.10571,3.15879 0.67944,1.92423 1.24474,3.51747 z m 2.63289,-14.48774 10.13868,9.3127 q 0.4841,0.44466 1.068,0.13897 0.57477,-0.31407 0.92186,0.005 0.37449,0.34398 -0.0114,0.76414 l -2.84415,3.09641 q -0.37754,0.41103 -0.75203,0.067 -0.34709,-0.31882 -0.0829,-0.91814 0.25508,-0.60772 -0.21988,-1.04399 l -10.14782,-9.32108 q -0.47497,-0.43628 -1.04974,-0.1222 -0.5839,0.30568 -0.94012,-0.0215 -0.37449,-0.34398 0.0114,-0.76414 l 2.83576,-3.08728 q 0.38593,-0.42016 0.76042,-0.0762 0.35622,0.32721 0.10114,0.93492 -0.26421,0.59933 0.21076,1.0356 z m 20.98097,-6.71712 -9.76941,-7.35526 q -0.50532,-0.38045 -1.05665,-0.0193 -0.54387,0.35123 -0.93029,0.0603 -0.40623,-0.30585 -0.0705,-0.75171 l 1.90223,-2.52658 q 0.34314,-0.45577 0.74938,-0.14992 0.38641,0.29093 0.19178,0.92061 -0.19464,0.62968 0.31067,1.01012 l 13.14063,9.90893 -2.15134,1.76461 -18.116,0.59662 9.66043,7.2732 q 0.51522,0.38791 1.06655,0.0268 0.54143,-0.36859 0.91794,-0.0851 0.40623,0.30585 0.0631,0.76162 l -1.89476,2.51667 q -0.34315,0.45577 -0.74938,0.14992 -0.37651,-0.28346 -0.17196,-0.90569 0.19464,-0.62968 -0.32059,-1.01758 l -11.00793,-8.28772 q -0.50531,-0.38045 -1.05665,-0.0193 -0.55133,0.36114 -0.93774,0.0702 -0.40624,-0.30585 -0.0631,-0.76162 l 2.02158,-2.68511 z m 6.45029,-6.7079 2.49577,-4.31611 q 0.49667,-0.85892 0.14982,-1.91908 -0.34064,-1.07089 -0.56523,-1.67354 -0.17141,-0.47161 -0.0286,-0.71855 0.28558,-0.49388 0.72578,-0.23934 0.16105,0.0931 0.24979,0.18742 l 2.45305,2.52161 -5.82967,10.08165 q -0.26696,0.46167 -0.70716,0.20712 -0.40799,-0.23591 -0.28009,-0.87829 0.11716,-0.64857 -0.44115,-0.97141 l -11.92834,-6.89751 q -0.5583,-0.32283 -1.05124,0.10845 -0.50368,0.42508 -0.9224,0.18295 -0.4402,-0.25454 -0.15462,-0.74842 l 5.91658,-10.23196 2.97404,1.71972 q 0.4402,0.25454 0.15461,0.74842 -0.15521,0.26842 -0.90312,0.32304 -1.0343,0.10393 -1.58727,0.24262 -0.56372,0.13249 -0.86172,0.64784 l -2.49577,4.31611 5.4005,3.12281 1.26651,-2.19026 q 0.28559,-0.49388 -0.13781,-1.02524 -0.43413,-0.53757 -0.16097,-1.00998 0.27938,-0.48315 0.71958,-0.2286 l 2.72709,1.57693 q 0.4402,0.25454 0.16083,0.73768 -0.26696,0.46168 -0.95732,0.39199 -0.69036,-0.0697 -0.98216,0.43494 l -1.22925,2.12584 z m 11.62969,-22.75369 q 0.27656,-0.13571 0.49553,-0.5407 0.31798,-0.53756 0.71526,-0.36265 l 0.0454,0.02 q 0.42405,0.26801 0.22415,0.72204 l -1.33433,3.0307 q -0.11495,0.26107 -1.37191,0.56138 -1.25697,0.30031 -2.87268,0.64595 -1.6157,0.34564 -3.30815,0.7117 -1.68745,0.3547 -2.59703,0.60469 l -0.6047,1.37346 5.6868,2.50375 q 0.59025,0.25987 1.04444,-0.21772 0.44284,-0.48258 0.87418,-0.29268 0.46538,0.2049 0.2405,0.71569 l -1.69416,3.84796 q -0.22989,0.52214 -0.69527,0.31724 -0.43134,-0.1899 -0.37443,-0.84241 0.0456,-0.6575 -0.54469,-0.91737 l -12.61085,-5.55223 q -0.5789,-0.25488 -1.03309,0.22271 -0.45419,0.47759 -0.89687,0.28269 -0.46539,-0.2049 -0.23551,-0.72704 l 2.94854,-6.69703 q 0.53973,-1.2259 1.57212,-2.3704 1.02604,-1.16086 2.63853,-1.3453 1.2601,-0.12276 2.65626,0.49193 1.32941,0.61241 2.07791,1.83633 0.59281,0.99276 0.57208,2.271 -0.0157,1.26688 -0.21792,1.78767 z m -18.03195,3.49819 6.17489,2.71864 1.03449,-2.34963 q 0.32483,-0.73781 0.44536,-1.56558 0.11416,-0.84411 -0.18445,-1.61248 -0.43609,-1.19479 -1.7982,-1.79449 -1.30536,-0.57472 -2.55283,-0.0805 -1.29017,0.52962 -1.98483,2.10739 z" id="text6" aria-label="PERSONAL TRAINER" class="XpJPltcz_3"></path>
    <path style="fill: none; fill-opacity: 1; fill-rule: evenodd; stroke: none; stroke-width: 0.264583; stroke-linecap: round; stroke-linejoin: round; stroke-opacity: 1;" id="path5" transform="matrix(-0.32812336,-0.94463488,-0.94463488,0.32812336,0,0)" d="M-276.06122,-12.090199A148.27406,148.27406 0,1,1 20.48689999999999,-12.090199A148.27406,148.27406 0,1,1 -276.06122,-12.090199" class="XpJPltcz_4"></path>
    <path style="fill: none; fill-opacity: 1; fill-rule: evenodd; stroke: none; stroke-width: 0.265; stroke-linecap: round; stroke-linejoin: round; stroke-opacity: 1;" id="path7" transform="rotate(72.307885)" d="M14.263279999999995,-10.7658A108.07688,108.07688 0,1,1 230.41704,-10.7658A108.07688,108.07688 0,1,1 14.263279999999995,-10.7658" class="XpJPltcz_5"></path>
    <path style="font-weight:bold;font-size:25.4px;line-height:2.65;font-family:Caudex;-inkscape-font-specification:'Caudex Bold';text-align:center;text-anchor:middle;fill:#957dad;stroke-width:0.264583" d="m -17.957372,15.974229 c -0.29996,0.205855 -0.54585,0.169028 -0.737669,-0.11048 -0.102927,-0.149979 -0.09317,-0.36225 0.02927,-0.636812 0.04866,-0.133672 0.108612,-0.28011 0.179855,-0.439313 0.07339,-0.170699 0.104399,-0.337388 0.09304,-0.500067 -0.02032,-0.146504 -0.07259,-0.281111 -0.156797,-0.403822 L -26.346428,2.522768 c -0.243283,-0.354497 -0.575124,-0.47273 -0.995522,-0.354698 -0.425076,0.111215 -0.728845,0.03389 -0.911308,-0.231986 -0.191819,-0.279508 -0.130932,-0.526868 0.182662,-0.74208 l 9.745276,-6.687945 1.943925,2.832572 c 0.191819,0.279508 0.130932,0.526868 -0.182662,0.74208 -0.170431,0.116963 -0.488504,0.08455 -0.954217,-0.09725 -0.652185,-0.234326 -1.16455,-0.389118 -1.537093,-0.464375 -0.377222,-0.08207 -0.729447,-0.01083 -1.056676,0.213742 l -4.110809,2.821148 3.529944,5.143624 2.086082,-1.431627 c 0.197701,-0.135677 0.312859,-0.3551 0.345475,-0.658267 0.02232,-0.21588 0.01463,-0.446264 -0.02306,-0.691151 -0.03556,-0.256383 0.05915,-0.461769 0.284119,-0.61616 0.306777,-0.210534 0.556075,-0.176047 0.747894,0.103461 l 1.782516,2.597377 c 0.191819,0.279507 0.134341,0.524528 -0.172436,0.735062 -0.238604,0.163748 -0.481553,0.175045 -0.728846,0.03389 -0.247293,-0.141157 -0.484828,-0.238871 -0.712605,-0.293142 -0.229915,-0.04277 -0.433497,-0.0033 -0.610746,0.1183 l -2.086082,1.431627 3.593103,5.235657 c 0.112285,0.163615 0.239941,0.276567 0.38297,0.338858 0.133672,0.04865 0.27503,0.07198 0.424074,0.06998 0.155862,-0.0067 0.305976,-0.01444 0.450341,-0.02326 0.31854,-0.01805 0.529274,0.04792 0.632201,0.197901 0.03743,0.05454 0.06804,0.113757 0.09183,0.17765 0.01471,0.240609 -0.07338,0.426413 -0.264269,0.557411 z M -10.554487,-7.3084471 -3.996643,4.79585 c 0.208748,0.385302 0.530316,0.544915 0.964704,0.47884 0.430449,-0.07334 0.720508,0.02811 0.870177,0.304364 0.161484,0.298064 0.07502,0.537685 -0.259393,0.718862 L -6.117873,8.300717 C -6.445016,8.477956 -6.68933,8.417544 -6.850814,8.11948 c -0.149669,-0.276254 -0.07623,-0.574641 0.2203,-0.895161 0.292597,-0.327789 0.33649,-0.6807 0.131681,-1.058732 l -6.563752,-12.115202 c -0.204809,-0.378032 -0.522439,-0.5303754 -0.952888,-0.4570305 -0.434388,0.066076 -0.728386,-0.04265 -0.881993,-0.3261737 -0.161484,-0.2980637 -0.07502,-0.5376844 0.259393,-0.7188621 l 3.685813,-1.9968929 c 0.334413,-0.1811777 0.582361,-0.1227346 0.743846,0.1753291 0.153607,0.2835241 0.08411,0.5891809 -0.208484,0.9169704 -0.296535,0.3205196 -0.342398,0.6697955 -0.137589,1.0478276 z M 8.22064,-14.101227 c 0.12728,0.314194 0.0147,0.542694 -0.33784,0.685501 -0.17625,0.0714 -0.48376,-0.02704 -0.922532,-0.295341 -0.594269,-0.365878 -1.06524,-0.625589 -1.412913,-0.779133 -0.350778,-0.161208 -0.710085,-0.167304 -1.077922,-0.01829 l -2.597849,1.052423 5.331966,13.16167 c 0.16143,0.39849 0.46167,0.589092 0.90072,0.571806 0.43904,-0.01729 0.71755,0.119673 0.83552,0.410878 0.12418,0.306531 0.0139,0.529647 -0.331,0.66935 L 4.712014,2.936273 C 4.359503,3.07908 4.121158,2.997223 3.996978,2.690687 3.879007,2.399482 3.983668,2.107298 4.310946,1.814135 4.638229,1.520972 4.721153,1.175145 4.55972,0.776654 l -5.331965,-13.16167 -2.643829,1.07105 c -0.367837,0.149016 -0.625424,0.405024 -0.772759,0.768023 -0.150439,0.355336 -0.307857,0.8696157 -0.472252,1.5428383 -0.112989,0.4918209 -0.261443,0.7749852 -0.445362,0.849493 -0.352511,0.1428067 -0.592408,0.057113 -0.719692,-0.2570813 l -0.861497,-2.126558 c -0.198687,-0.490449 -0.219413,-0.838891 -0.062176,-1.045325 0.154132,-0.214097 0.556887,-0.453086 1.208265,-0.716968 l 10.851193,-4.395961 c 0.705021,-0.285613 1.170495,-0.402815 1.396422,-0.351606 0.230488,0.04044 0.448182,0.31355 0.653072,0.819326 z m 17.56467,-7.716035 c 0.83807,-0.151317 1.74401,-0.159452 2.71781,-0.0244 0.98047,0.125443 1.79821,0.582737 2.4532,1.371882 0.51397,0.612963 0.85763,1.399508 1.03098,2.359635 0.14973,0.922381 0.0337,1.791931 -0.34819,2.608647 -0.28252,0.622341 -0.61437,1.064545 -0.99555,1.326613 0.88655,0.117193 1.70756,0.615905 2.46303,1.496135 0.55973,0.680317 0.93436,1.545291 1.12387,2.594921 0.16589,1.0118851 0.0401,1.9672082 -0.37735,2.8659694 -0.36999,0.7893683 -0.97572,1.4364576 -1.81719,1.9412676 -0.83333,0.50334 -1.62429,0.822589 -2.37286,0.957747 l -7.65253,1.381687 c -0.37429,0.06758 -0.59155,-0.06543 -0.65178,-0.399037 -0.0558,-0.309194 0.10648,-0.573748 0.48684,-0.793663 0.38039,-0.219915 0.53313,-0.537357 0.4582,-0.952327 L 19.85333,-18.65415 c -0.0734,-0.406833 -0.32682,-0.646753 -0.76009,-0.719758 -0.43328,-0.073 -0.67857,-0.268172 -0.73586,-0.585502 -0.0603,-0.333604 0.0968,-0.534195 0.47108,-0.601773 z m -1.82247,9.869429 1.26489,7.005671 2.45321,-0.442933 c 0.56143,-0.101368 1.10817,-0.284103 1.64022,-0.548204 0.53205,-0.264101 0.96549,-0.6322269 1.30034,-1.1043787 0.51634,-0.7233707 0.68196,-1.5976661 0.49685,-2.6228862 -0.17776,-0.9845371 -0.65494,-1.7427731 -1.43154,-2.2747101 -0.82169,-0.549001 -1.82651,-0.716257 -3.01446,-0.501769 z m -0.27986,-1.550035 3.03904,-0.548708 c 0.85299,-0.254834 1.50172,-0.687036 1.94619,-1.296606 0.463,-0.646525 0.61076,-1.433577 0.44329,-2.361157 -0.16307,-0.90317 -0.59302,-1.585917 -1.28983,-2.048239 -0.73523,-0.488993 -1.63173,-0.637998 -2.6895,-0.447015 l -2.57526,0.464969 z m 18.58193,-0.679736 -4.52348,-7.064743 c -0.17251,-0.243131 -0.46486,-0.482773 -0.87705,-0.718928 -0.21801,-0.101187 -0.43565,-0.189977 -0.65294,-0.26637 -0.21729,-0.07639 -0.40164,-0.15788 -0.55305,-0.244462 -0.1259,-0.06251 -0.22748,-0.14227 -0.30475,-0.239282 -0.0605,-0.08923 -0.092,-0.175165 -0.0944,-0.257813 l -0.002,-0.06198 c 0.0271,-0.20758 0.16869,-0.315099 0.42488,-0.322556 l 4.20261,-0.122324 c 0.15703,-0.0046 0.30287,0.03254 0.43751,0.111342 0.11811,0.07928 0.2158,0.167425 0.29307,0.264437 0.052,0.0812 0.0791,0.158997 0.0812,0.23338 0.003,0.107441 -0.039,0.216206 -0.12699,0.326293 -0.0557,0.07607 -0.11549,0.152253 -0.17946,0.22856 -0.0642,0.06804 -0.0995,0.135243 -0.1058,0.201601 l 0.002,0.06199 c 0.004,0.140501 0.062,0.287702 0.17416,0.441605 l 4.08514,6.072486 2.80821,-4.548471 c 0.21328,-0.345349 1.00475,-1.568519 1.03084,-1.809159 -1.24024,-0.660578 -0.88849,-1.120773 -0.85891,-1.506748 l 1.76379,0.01521 c 0.0634,-0.02654 0.7603,-0.01356 1.49485,-0.01356 0.49864,0 0.52501,-0.03276 1.09305,-0.02266 1.34234,0.02387 -1.04691,2.329312 -1.69922,3.119745 -0.41654,0.46707 -1.16432,1.340071 -1.63149,2.056766 l -2.76902,4.112305 c -0.12646,0.202202 -0.2047,0.498126 -0.23471,0.887771 -0.0303,0.38138 -0.0402,0.749762 -0.0299,1.105145 l 0.12666,4.3513799 c 0.0125,0.4297659 0.22757,0.7130175 0.64511,0.8497548 0.41733,0.1284725 0.63056,0.3497385 0.6397,0.6637983 0.01,0.338854 -0.17529,0.513814 -0.55547,0.52488 L 42.16643,-5.6259 c -0.38017,0.01107 -0.57519,-0.152828 -0.58506,-0.491682 -0.009,-0.3140603 0.19087,-0.5473544 0.60001,-0.6998827 0.40891,-0.160793 0.60711,-0.4560724 0.5946,-0.8858383 l -0.15408,-5.293559 c -0.013,-0.446295 -0.13199,-0.839875 -0.35696,-1.180739 z" id="text7" aria-label="FIT BY" sodipodi:nodetypes="ssccccscsscssccsccsccssssscscscccsccssscsssscsscsssscscsccscsssssssscsccssscsscscscccccccccssssccsccsccsscscsccccscscccccsccccsccccccccccccccsscccccccsssscscsc" class="XpJPltcz_6"></path>
    <path style="fill: none; fill-opacity: 1; fill-rule: evenodd; stroke: url(&quot;#linearGradient170&quot;); stroke-width: 2.7888; stroke-linecap: round; stroke-linejoin: round; stroke-opacity: 1;" id="path8-7" sodipodi:type="arc" sodipodi:cx="54.91991" sodipodi:cy="121.64655" sodipodi:rx="139.39081" sodipodi:ry="136.94054" sodipodi:start="4.7562015" sodipodi:end="6.1870842" sodipodi:open="true" sodipodi:arc-type="arc" d="M 61.025019,-15.162573 A 139.39081,136.94054 0 0 1 193.66755,108.50666" class="XpJPltcz_7"></path>
    <path style="fill: none; fill-opacity: 1; fill-rule: evenodd; stroke: url(&quot;#linearGradient2&quot;); stroke-width: 2.7888; stroke-linecap: round; stroke-linejoin: round; stroke-opacity: 1;" id="path8-7-0" sodipodi:type="arc" sodipodi:cx="54.91991" sodipodi:cy="121.64655" sodipodi:rx="139.39081" sodipodi:ry="136.94054" sodipodi:start="0.042298965" sodipodi:end="0.27680558" sodipodi:open="true" sodipodi:arc-type="arc" d="m 194.18604,127.43727 a 139.39081,136.94054 0 0 1 -5.18147,31.63297" class="XpJPltcz_8"></path>
    <path style="fill: none; fill-opacity: 1; fill-rule: evenodd; stroke: rgb(254, 200, 216); stroke-width: 4.22673; stroke-linecap: round; stroke-linejoin: round; stroke-opacity: 1;" id="ellipse2712" transform="matrix(0.73973311,-0.67290038,0.6164594,0.7873867,0,0)" d="M-13.4753478,124.44993A2.4928508,1.9607478 0,1,1 -8.489646200000001,124.44993A2.4928508,1.9607478 0,1,1 -13.4753478,124.44993" class="XpJPltcz_9"></path>
    <path style="fill: none; fill-opacity: 1; fill-rule: evenodd; stroke: none; stroke-width: 0.265; stroke-linecap: round; stroke-linejoin: round; stroke-opacity: 1;" id="circle2713" transform="rotate(72.307885)" d="M14.263279999999995,-10.7658A108.07688,108.07688 0,1,1 230.41704,-10.7658A108.07688,108.07688 0,1,1 14.263279999999995,-10.7658" class="XpJPltcz_10"></path>
    <path id="path2713" style="fill:none;fill-rule:evenodd;stroke:url(#linearGradient168);stroke-width:2.80418;stroke-linecap:round;stroke-linejoin:round" d="m -84.262208,114.36342 c 1.905067,-38.353895 19.759887,-73.670133 49.298424,-98.442534" sodipodi:nodetypes="cc" class="XpJPltcz_11"></path>
    <path style="fill: none; fill-opacity: 1; fill-rule: evenodd; stroke: url(&quot;#linearGradient1&quot;); stroke-width: 2.80418; stroke-linecap: round; stroke-linejoin: round; stroke-opacity: 1;" id="path2713-5" sodipodi:type="arc" sodipodi:cx="54.955631" sodipodi:cy="121.71575" sodipodi:rx="139.38719" sodipodi:ry="138.45798" sodipodi:start="2.2014142" sodipodi:end="3.0673916" sodipodi:open="true" sodipodi:arc-type="arc" d="M -27.233177,233.54318 A 139.38719,138.45798 0 0 1 -84.048018,131.98005" class="XpJPltcz_12"></path>
    <text xml:space="preserve" style="font-size:50.8px;line-height:2.65;font-family:'Adventure Time Logo';-inkscape-font-specification:'Adventure Time Logo';text-align:center;text-anchor:middle;stroke-width:0.264583" x="-73.762283" y="-38.629166" id="text1"><tspan sodipodi:role="line" id="tspan1" style="stroke-width:0.264583" x="-73.762283" y="-38.629166">`</tspan></text>
  </g>
<style data-made-with="vivus-instant">.XpJPltcz_0{stroke-dasharray:698 700;stroke-dashoffset:699;animation:XpJPltcz_draw_0 3100ms linear 0ms infinite,XpJPltcz_fade 3100ms linear 0ms infinite;}.XpJPltcz_1{stroke-dasharray:850 852;stroke-dashoffset:851;animation:XpJPltcz_draw_1 3100ms linear 0ms infinite,XpJPltcz_fade 3100ms linear 0ms infinite;}.XpJPltcz_2{stroke-dasharray:21 23;stroke-dashoffset:22;animation:XpJPltcz_draw_2 3100ms linear 0ms infinite,XpJPltcz_fade 3100ms linear 0ms infinite;}.XpJPltcz_3{stroke-dasharray:1406 1408;stroke-dashoffset:1407;animation:XpJPltcz_draw_3 3100ms linear 0ms infinite,XpJPltcz_fade 3100ms linear 0ms infinite;}.XpJPltcz_4{stroke-dasharray:932 934;stroke-dashoffset:933;animation:XpJPltcz_draw_4 3100ms linear 0ms infinite,XpJPltcz_fade 3100ms linear 0ms infinite;}.XpJPltcz_5{stroke-dasharray:680 682;stroke-dashoffset:681;animation:XpJPltcz_draw_5 3100ms linear 0ms infinite,XpJPltcz_fade 3100ms linear 0ms infinite;}.XpJPltcz_6{stroke-dasharray:385 387;stroke-dashoffset:386;animation:XpJPltcz_draw_6 3100ms linear 0ms infinite,XpJPltcz_fade 3100ms linear 0ms infinite;}.XpJPltcz_7{stroke-dasharray:198 200;stroke-dashoffset:199;animation:XpJPltcz_draw_7 3100ms linear 0ms infinite,XpJPltcz_fade 3100ms linear 0ms infinite;}.XpJPltcz_8{stroke-dasharray:33 35;stroke-dashoffset:34;animation:XpJPltcz_draw_8 3100ms linear 0ms infinite,XpJPltcz_fade 3100ms linear 0ms infinite;}.XpJPltcz_9{stroke-dasharray:15 17;stroke-dashoffset:16;animation:XpJPltcz_draw_9 3100ms linear 0ms infinite,XpJPltcz_fade 3100ms linear 0ms infinite;}.XpJPltcz_10{stroke-dasharray:680 682;stroke-dashoffset:681;animation:XpJPltcz_draw_10 3100ms linear 0ms infinite,XpJPltcz_fade 3100ms linear 0ms infinite;}.XpJPltcz_11{stroke-dasharray:114 116;stroke-dashoffset:115;animation:XpJPltcz_draw_11 3100ms linear 0ms infinite,XpJPltcz_fade 3100ms linear 0ms infinite;}.XpJPltcz_12{stroke-dasharray:121 123;stroke-dashoffset:122;animation:XpJPltcz_draw_12 3100ms linear 0ms infinite,XpJPltcz_fade 3100ms linear 0ms infinite;}@keyframes XpJPltcz_draw{100%{stroke-dashoffset:0;}}@keyframes XpJPltcz_fade{0%{stroke-opacity:1;}87.09677419354838%{stroke-opacity:1;}100%{stroke-opacity:0;}}@keyframes XpJPltcz_draw_0{6.451612903225806%{stroke-dashoffset: 699}54.83870967741935%{ stroke-dashoffset: 0;}100%{ stroke-dashoffset: 0;}}@keyframes XpJPltcz_draw_1{6.451612903225806%{stroke-dashoffset: 851}54.83870967741935%{ stroke-dashoffset: 0;}100%{ stroke-dashoffset: 0;}}@keyframes XpJPltcz_draw_2{6.451612903225806%{stroke-dashoffset: 22}54.83870967741935%{ stroke-dashoffset: 0;}100%{ stroke-dashoffset: 0;}}@keyframes XpJPltcz_draw_3{6.451612903225806%{stroke-dashoffset: 1407}54.83870967741935%{ stroke-dashoffset: 0;}100%{ stroke-dashoffset: 0;}}@keyframes XpJPltcz_draw_4{6.451612903225806%{stroke-dashoffset: 933}54.83870967741935%{ stroke-dashoffset: 0;}100%{ stroke-dashoffset: 0;}}@keyframes XpJPltcz_draw_5{6.451612903225806%{stroke-dashoffset: 681}54.83870967741935%{ stroke-dashoffset: 0;}100%{ stroke-dashoffset: 0;}}@keyframes XpJPltcz_draw_6{6.451612903225806%{stroke-dashoffset: 386}54.83870967741935%{ stroke-dashoffset: 0;}100%{ stroke-dashoffset: 0;}}@keyframes XpJPltcz_draw_7{6.451612903225806%{stroke-dashoffset: 199}54.83870967741935%{ stroke-dashoffset: 0;}100%{ stroke-dashoffset: 0;}}@keyframes XpJPltcz_draw_8{6.451612903225806%{stroke-dashoffset: 34}54.83870967741935%{ stroke-dashoffset: 0;}100%{ stroke-dashoffset: 0;}}@keyframes XpJPltcz_draw_9{6.451612903225806%{stroke-dashoffset: 16}54.83870967741935%{ stroke-dashoffset: 0;}100%{ stroke-dashoffset: 0;}}@keyframes XpJPltcz_draw_10{6.451612903225806%{stroke-dashoffset: 681}54.83870967741935%{ stroke-dashoffset: 0;}100%{ stroke-dashoffset: 0;}}@keyframes XpJPltcz_draw_11{6.451612903225806%{stroke-dashoffset: 115}54.83870967741935%{ stroke-dashoffset: 0;}100%{ stroke-dashoffset: 0;}}@keyframes XpJPltcz_draw_12{6.451612903225806%{stroke-dashoffset: 122}54.83870967741935%{ stroke-dashoffset: 0;}100%{ stroke-dashoffset: 0;}}</style></svg>
